<svg xmlns="http://www.w3.org/2000/svg" width="249.999" height="43.553" viewBox="0 0 249.999 43.553"><defs><style>.a{fill:#64ccc9;}</style></defs><g transform="translate(0 -0.224)"><path class="a" d="M229.613,20.8C224.719,16,223.319,11.539,226,7.586A6.544,6.544,0,0,1,231.045,4.6a2.058,2.058,0,0,1,1.231.269.656.656,0,0,1,.187.976c-.306.452-.954.294-1.669.376a4.575,4.575,0,0,0-3.219,1.964c-1.708,2.516-.89,5.616,1.692,7.368a5.8,5.8,0,0,0,8.256-1.748c2.366-3.486,1.013-7.325-2.085-9.428C232.083,2.1,227.425,2.992,224.8,6.864c-2.365,3.487-1.633,9.561,4.817,13.938"/><path class="a" d="M232.673,23.2c4.894,4.805,6.293,9.263,3.611,13.216a6.546,6.546,0,0,1-5.043,2.986,2.064,2.064,0,0,1-1.231-.27.656.656,0,0,1-.186-.976c.306-.452.953-.294,1.668-.376a4.577,4.577,0,0,0,3.219-1.963c1.708-2.516.89-5.617-1.692-7.369a5.8,5.8,0,0,0-8.256,1.748c-2.366,3.486-1.013,7.326,2.085,9.429,3.355,2.277,8.013,1.386,10.642-2.487,2.365-3.486,1.633-9.561-4.817-13.938"/><path class="a" d="M232.339,20.469c4.8-4.893,9.263-6.293,13.215-3.611A6.546,6.546,0,0,1,248.54,21.9a2.054,2.054,0,0,1-.27,1.23.656.656,0,0,1-.976.186c-.452-.305-.294-.953-.376-1.668a4.565,4.565,0,0,0-1.964-3.217c-2.516-1.709-5.616-.891-7.368,1.69a5.8,5.8,0,0,0,1.749,8.256c3.485,2.366,7.324,1.013,9.427-2.085,2.278-3.355,1.387-8.013-2.486-10.642-3.484-2.365-9.558-1.634-13.937,4.816"/><path class="a" d="M229.946,23.529c-4.8,4.894-9.263,6.293-13.214,3.612a6.549,6.549,0,0,1-2.987-5.045,2.059,2.059,0,0,1,.271-1.231.654.654,0,0,1,.974-.186c.452.305.294.954.376,1.668a4.568,4.568,0,0,0,1.964,3.219c2.516,1.708,5.616.89,7.368-1.692a5.8,5.8,0,0,0-1.748-8.256c-3.486-2.366-7.325-1.013-9.428,2.085-2.278,3.355-1.387,8.013,2.486,10.642,3.485,2.365,9.56,1.634,13.938-4.816"/><path class="a" d="M53.9,26.516c-.685,2.65-2.053,4.873-6.5,4.873-3.548,0-7.183-1.368-7.183-5.644,0-5.984,9.192-6.369,13.124-6.369v-1.41c0-3.12-.085-7.011-4.617-7.011-3.292,0-6.156,1.8-6.156,3.548a.381.381,0,0,0,.384.384c.384,0,.428-.384.556-.641a2.494,2.494,0,0,1,2.351-1.539A2.889,2.889,0,0,1,48.6,15.785a3.273,3.273,0,0,1-3.249,3.249,3.586,3.586,0,0,1-3.8-3.59c0-3.293,3.206-5.345,8.506-5.345,9.234,0,11.372,3.12,11.372,9.832V27.2c0,.985.171,1.754.769,1.754,1.112,0,1.839-1.923,2.1-4.275l.769.085c-.47,3.847-2.009,6.626-5.942,6.626a5,5,0,0,1-4.959-4.873H53.9Zm-.556-6.371c-2.693-.127-5.045,1.069-5.045,4.746,0,3.078,1.112,4.361,2.394,4.361,1.882,0,2.651-2.994,2.651-5.131V20.145Z"/><path class="a" d="M133.1,24.206l.086-.384.769.127c-.812,4.575-3.976,7.44-9.062,7.44-7.482,0-11.928-3.591-11.928-10.645,0-6.67,4.318-10.644,11.115-10.644,4.916,0,9.79,1.625,9.79,6.5,0,4.489-4.445,5.855-9.406,5.855h-2.821c0,4.746.856,7.91,4.532,7.91,3.377,0,6.155-2.394,6.925-6.157m-11.5-2.522h1.069c2.693,0,3.42-2.009,3.42-5.13,0-4.532-.855-5.686-2.009-5.686-1.581,0-2.479,1.111-2.479,7.737v3.079Z"/><path class="a" d="M150.667,20.744c0-6.369,4.574-10.644,11.286-10.644s11.286,4.275,11.286,10.644-4.574,10.644-11.286,10.644-11.286-4.275-11.286-10.644m11.286-9.876c-2.009,0-2.651,2.522-2.651,9.875s.641,9.874,2.651,9.874S164.6,28.1,164.6,20.743s-.642-9.875-2.651-9.875"/><path class="a" d="M28.213,29.892v.685h7.912V18.906c0-5.173-1.5-8.806-6.67-8.806-2.992,0-4.873,1.41-5.985,4.189h-.213l-.043.042a5.862,5.862,0,0,0-5.9-4.231c-2.992,0-4.873,1.41-5.985,4.189h-.214V10.1a40.928,40.928,0,0,1-8.549.812H0V11.6H3.035V30.576h7.909V22.624c0-4.36.855-10.217,3.035-10.217,1.923,0,2.095,3.292,2.095,8.295v9.875h7.011V22.625c0-4.36.855-10.217,3.035-10.217,1.923,0,2.095,3.292,2.095,8.295v9.19h0Z"/><path class="a" d="M88.482,30.576V.224a40.873,40.873,0,0,1-8.551.812H77.365v.685H80.4V13.134h-.214C79.2,11.126,77.451,10.1,74.8,10.1c-6.156,0-8.336,4.489-8.336,10.644,0,5.727,2.436,10.644,7.737,10.644,2.992,0,4.873-.983,5.985-3.761H80.4v2.949ZM77.323,29.465c-1.923,0-2.223-3.89-2.223-8.721,0-6.07.556-9.063,2.223-9.063,1.582,0,3.249,2.566,3.249,7.909v1.154c0,3.889-1.025,8.721-3.249,8.721"/><path class="a" d="M107.884,10.1a5.272,5.272,0,0,0-4.831,3.463h-.214V10.1a40.867,40.867,0,0,1-8.549.812H91.724v.683h3.035V30.575h7.909V21.383c0-6.754,1.667-10.516,5.257-10.516a3.59,3.59,0,0,1,2.908,1.368,1.128,1.128,0,0,1,.256.641.359.359,0,0,1-.384.386c-.3,0-.428-.342-.683-.643a2.506,2.506,0,0,0-1.881-.854A2.846,2.846,0,0,0,105.32,14.8a3.179,3.179,0,0,0,3.333,3.208,3.6,3.6,0,0,0,3.634-3.848,4.172,4.172,0,0,0-4.4-4.06"/><path class="a" d="M190.809,10.943h-2.658V11.7H191.3v7.976c0,4.519-.886,9.969-3.145,9.969-1.994,0-2.172-3.234-2.172-8.419V10.1a40.558,40.558,0,0,1-8.685.843h-2.659v.708h3.146V23.084c0,5.36,1.551,9.127,6.913,9.127,3.1,0,5.052-1.462,6.2-4.342h.222V33.36c4.032-.308,5.938,2.306,5.938,4.875,0,2.394-1.507,4.742-4.387,4.742a3.9,3.9,0,0,1-3.146-1.55,1.163,1.163,0,0,1-.266-.666.372.372,0,0,1,.4-.4c.311,0,.444.354.709.665a2.594,2.594,0,0,0,1.95.887,3.036,3.036,0,0,0,3.1-3.235,3.4,3.4,0,0,0-3.545-3.457,3.839,3.839,0,0,0-3.855,4.122,4.47,4.47,0,0,0,4.653,4.432c5.628,0,6.823-5.319,6.823-9.485V10.1a40.558,40.558,0,0,1-8.685.844"/><path class="a" d="M137.758,10.911h-2.564V11.6h3.035V33.728c3.889-.3,5.728,2.224,5.728,4.7,0,2.309-1.453,4.574-4.233,4.574a3.759,3.759,0,0,1-3.035-1.5,1.117,1.117,0,0,1-.256-.639.36.36,0,0,1,.384-.387c.3,0,.428.341.685.641a2.5,2.5,0,0,0,1.88.856,2.929,2.929,0,0,0,2.993-3.122,3.281,3.281,0,0,0-3.42-3.335,3.7,3.7,0,0,0-3.72,3.977,4.313,4.313,0,0,0,4.489,4.276c5.43,0,6.583-5.132,6.583-9.15V10.1a40.908,40.908,0,0,1-8.549.811"/></g></svg>