<svg xmlns="http://www.w3.org/2000/svg" width="59.998" height="60.001" viewBox="0 0 59.998 60.001"><defs><style>.a{fill:#64ccc9;}</style></defs><g transform="translate(0 0.001)"><path class="a" d="M27.568,28.095C19.782,20.451,17.555,13.359,21.823,7.07a10.412,10.412,0,0,1,8.023-4.749,3.275,3.275,0,0,1,1.958.428A1.045,1.045,0,0,1,32.1,4.3c-.487.719-1.518.468-2.655.6a7.282,7.282,0,0,0-5.121,3.124c-2.717,4-1.416,8.934,2.692,11.721,4.62,3.136,10.138,1.635,13.134-2.781,3.764-5.546,1.612-11.653-3.317-15C31.5-1.658,24.088-.239,19.9,5.921,16.142,11.47,17.307,21.132,27.568,28.095Z"/><path class="a" d="M32.436,31.9c7.786,7.644,10.011,14.736,5.744,21.025a10.413,10.413,0,0,1-8.023,4.75,3.28,3.28,0,0,1-1.958-.43,1.044,1.044,0,0,1-.3-1.553c.487-.719,1.516-.468,2.654-.6a7.283,7.283,0,0,0,5.121-3.123c2.717-4,1.416-8.936-2.692-11.723-4.62-3.135-10.138-1.635-13.134,2.781-3.764,5.546-1.612,11.654,3.317,15,5.337,3.622,12.747,2.205,16.93-3.956C43.861,48.531,42.7,38.867,32.436,31.9Z"/><path class="a" d="M54.076,19.9c-5.542-3.762-15.2-2.6-22.172,7.661,7.644-7.784,14.736-10.011,21.023-5.745a10.414,10.414,0,0,1,4.75,8.026,3.273,3.273,0,0,1-.43,1.957,1.043,1.043,0,0,1-1.553.3c-.719-.485-.468-1.516-.6-2.653a7.265,7.265,0,0,0-3.124-5.118c-4-2.719-8.934-1.417-11.721,2.689-3.136,4.62-1.634,10.137,2.782,13.134,5.544,3.764,11.651,1.612,15-3.317C61.654,31.5,60.237,24.086,54.076,19.9Z"/><path class="a" d="M28.1,32.434C20.453,40.22,13.361,42.445,7.076,38.18a10.418,10.418,0,0,1-4.752-8.026A3.276,3.276,0,0,1,2.755,28.2,1.04,1.04,0,0,1,4.3,27.9c.719.485.468,1.518.6,2.653a7.269,7.269,0,0,0,3.124,5.121c4,2.717,8.934,1.416,11.721-2.692,3.136-4.618,1.635-10.137-2.781-13.134-5.546-3.764-11.653-1.612-15,3.317C-1.656,28.5-.239,35.912,5.923,40.095,11.468,43.857,21.133,42.695,28.1,32.434Z"/></g></svg>